<svg width="34" height="34" viewBox="0 0 34 34" fill="none" xmlns="http://www.w3.org/2000/svg">
<path d="M17 6.90625C17.8802 6.90625 18.5938 6.1927 18.5938 5.3125C18.5938 4.4323 17.8802 3.71875 17 3.71875C16.1198 3.71875 15.4062 4.4323 15.4062 5.3125C15.4062 6.1927 16.1198 6.90625 17 6.90625Z" stroke="black" stroke-width="4.6875" stroke-linecap="round" stroke-linejoin="round"/>
<path d="M17 18.5938C17.8802 18.5938 18.5938 17.8802 18.5938 17C18.5938 16.1198 17.8802 15.4062 17 15.4062C16.1198 15.4062 15.4062 16.1198 15.4062 17C15.4062 17.8802 16.1198 18.5938 17 18.5938Z" stroke="black" stroke-width="4.6875" stroke-linecap="round" stroke-linejoin="round"/>
<path d="M17 30.2812C17.8802 30.2812 18.5938 29.5677 18.5938 28.6875C18.5938 27.8073 17.8802 27.0938 17 27.0938C16.1198 27.0938 15.4062 27.8073 15.4062 28.6875C15.4062 29.5677 16.1198 30.2812 17 30.2812Z" stroke="black" stroke-width="4.6875" stroke-linecap="round" stroke-linejoin="round"/>
</svg>
