<svg width="61" height="61" viewBox="0 0 61 61" fill="none" xmlns="http://www.w3.org/2000/svg">
<path d="M30.5 15.25C27.8492 15.2534 25.3079 16.3079 23.4334 18.1823C21.559 20.0568 20.5045 22.5981 20.5011 25.2489H25.5844C25.5844 22.537 27.7906 20.3333 30.5 20.3333C33.2094 20.3333 35.4156 22.537 35.4156 25.2489C35.4156 26.7688 34.1931 27.8719 32.3249 29.3817C31.7146 29.8598 31.1285 30.3679 30.5686 30.9041C28.0321 33.4382 27.9583 36.1298 27.9583 36.4297V38.125H33.0417L33.0391 36.5161C33.0417 36.4755 33.123 35.535 34.16 34.5006C34.5413 34.1193 35.0216 33.7381 35.5198 33.3365C37.4998 31.7327 40.4964 29.3105 40.4964 25.2489C40.4944 22.5981 39.4406 20.0564 37.5664 18.1817C35.6923 16.3071 33.1508 15.2527 30.5 15.25ZM27.9583 40.6667H33.0417V45.75H27.9583V40.6667Z" fill="black"/>
<path d="M30.5 5.08333C16.4852 5.08333 5.08331 16.4852 5.08331 30.5C5.08331 44.5147 16.4852 55.9167 30.5 55.9167C44.5147 55.9167 55.9166 44.5147 55.9166 30.5C55.9166 16.4852 44.5147 5.08333 30.5 5.08333ZM30.5 50.8333C19.2887 50.8333 10.1666 41.7113 10.1666 30.5C10.1666 19.2887 19.2887 10.1667 30.5 10.1667C41.7113 10.1667 50.8333 19.2887 50.8333 30.5C50.8333 41.7113 41.7113 50.8333 30.5 50.8333Z" fill="black"/>
</svg>
