<svg width="61" height="61" viewBox="0 0 61 61" fill="none" xmlns="http://www.w3.org/2000/svg">
<path d="M7.62499 33.0417H10.1667V50.8333C10.1667 53.6368 12.4465 55.9167 15.25 55.9167H45.75C48.5534 55.9167 50.8333 53.6368 50.8333 50.8333V33.0417H53.375C53.8776 33.0416 54.3689 32.8924 54.7868 32.6132C55.2047 32.3339 55.5303 31.9369 55.7227 31.4726C55.915 31.0082 55.9653 30.4973 55.8673 30.0043C55.7693 29.5113 55.5273 29.0585 55.1719 28.703L32.2969 5.82804C32.0611 5.59181 31.781 5.40439 31.4727 5.27652C31.1643 5.14864 30.8338 5.08282 30.5 5.08282C30.1662 5.08282 29.8357 5.14864 29.5273 5.27652C29.219 5.40439 28.9389 5.59181 28.703 5.82804L5.82803 28.703C5.47268 29.0585 5.2307 29.5113 5.13267 30.0043C5.03465 30.4973 5.08498 31.0082 5.27731 31.4726C5.46963 31.9369 5.79532 32.3339 6.2132 32.6132C6.63107 32.8924 7.12237 33.0416 7.62499 33.0417ZM25.4167 50.8333V38.125H35.5833V50.8333H25.4167ZM30.5 11.2189L45.75 26.4689V38.125L45.7525 50.8333H40.6667V38.125C40.6667 35.3215 38.3868 33.0417 35.5833 33.0417H25.4167C22.6132 33.0417 20.3333 35.3215 20.3333 38.125V50.8333H15.25V26.4689L30.5 11.2189Z" fill="black"/>
</svg>
