<svg width="61" height="61" viewBox="0 0 61 61" fill="none" xmlns="http://www.w3.org/2000/svg">
<path d="M30.5 55.9167C33.2959 55.9167 35.5834 53.6292 35.5834 50.8333H25.4167C25.4167 53.6292 27.7042 55.9167 30.5 55.9167ZM45.75 40.6667V27.9583C45.75 20.1554 41.6071 13.6233 34.3125 11.895V10.1667C34.3125 8.05708 32.6096 6.35416 30.5 6.35416C28.3904 6.35416 26.6875 8.05708 26.6875 10.1667V11.895C19.4184 13.6233 15.25 20.13 15.25 27.9583V40.6667L10.1667 45.75V48.2917H50.8334V45.75L45.75 40.6667ZM40.6667 43.2083H20.3334V27.9583C20.3334 21.655 24.1713 16.5208 30.5 16.5208C36.8288 16.5208 40.6667 21.655 40.6667 27.9583V43.2083ZM19.2659 10.37L15.6313 6.73541C9.53127 11.3867 5.51544 18.5542 5.15961 26.6875H10.2429C10.423 23.4642 11.3278 20.323 12.89 17.4978C14.4522 14.6726 16.6316 12.2362 19.2659 10.37ZM50.7571 26.6875H55.8404C55.4592 18.5542 51.4434 11.3867 45.3688 6.73541L41.7596 10.37C44.3826 12.2454 46.5522 14.6845 48.1092 17.5082C49.6662 20.3318 50.571 23.4684 50.7571 26.6875Z" fill="black"/>
</svg>
