<svg width="61" height="61" viewBox="0 0 61 61" fill="none" xmlns="http://www.w3.org/2000/svg">
<path d="M53.9707 13.4391L31.0957 5.81406C30.7075 5.69462 30.2924 5.69462 29.9043 5.81406L7.0531 13.4391H7.00544L6.76716 13.5582H6.74333L6.50505 13.7012C6.50505 13.725 6.48122 13.725 6.45739 13.7488L6.26677 13.9156L6.09997 14.1063C6.09997 14.1301 6.07614 14.1301 6.07614 14.1539L5.93318 14.3684C5.93318 14.3922 5.93318 14.3922 5.90935 14.416L5.81404 14.6305L5.74255 14.8926V14.9641C5.71905 15.0574 5.711 15.154 5.71872 15.25V34.3125C5.71872 34.8181 5.91956 35.3029 6.27705 35.6604C6.63454 36.0179 7.1194 36.2188 7.62497 36.2188C8.13054 36.2188 8.6154 36.0179 8.97289 35.6604C9.33039 35.3029 9.53122 34.8181 9.53122 34.3125V17.8949L17.5375 20.5637C16.0333 22.9713 15.2404 25.755 15.25 28.5938C15.2509 31.1755 15.9072 33.7148 17.1575 35.9737C18.4078 38.2326 20.2111 40.137 22.3984 41.5086C17.853 43.2281 13.9724 46.3492 11.3183 50.4203C11.0478 50.8481 10.9562 51.3651 11.0631 51.8598C11.1701 52.3545 11.4671 52.7874 11.8902 53.0652C12.0978 53.2028 12.3307 53.2978 12.5753 53.3447C12.8199 53.3916 13.0714 53.3896 13.3152 53.3386C13.559 53.2876 13.7903 53.1888 13.9956 53.0478C14.2009 52.9068 14.3762 52.7264 14.5113 52.5172C16.2415 49.852 18.6105 47.6616 21.4029 46.1453C24.1953 44.6289 27.3224 43.8345 30.5 43.8345C33.6775 43.8345 36.8047 44.6289 39.597 46.1453C42.3894 47.6616 44.7584 49.852 46.4886 52.5172C46.6627 52.7814 46.8997 52.9982 47.1784 53.148C47.4571 53.2977 47.7687 53.3757 48.0851 53.375C48.4503 53.3789 48.8079 53.2708 49.1097 53.0652C49.5328 52.7874 49.8299 52.3545 49.9368 51.8598C50.0438 51.3651 49.9521 50.8481 49.6816 50.4203C47.0275 46.3492 43.147 43.2281 38.6015 41.5086C40.7889 40.137 42.5922 38.2326 43.8425 35.9737C45.0928 33.7148 45.7491 31.1755 45.75 28.5938C45.7596 25.755 44.9666 22.9713 43.4625 20.5637L53.9707 17.0609C54.3521 16.9356 54.6841 16.693 54.9195 16.3678C55.155 16.0427 55.2817 15.6515 55.2817 15.25C55.2817 14.8485 55.155 14.4573 54.9195 14.1322C54.6841 13.807 54.3521 13.5644 53.9707 13.4391ZM41.9375 28.5938C41.9375 31.6272 40.7325 34.5363 38.5875 36.6813C36.4426 38.8262 33.5334 40.0313 30.5 40.0313C27.4666 40.0313 24.5574 38.8262 22.4124 36.6813C20.2675 34.5363 19.0625 31.6272 19.0625 28.5938C19.0671 26.1531 19.8427 23.7763 21.2785 21.8027L29.9043 24.6859C30.2912 24.8132 30.7087 24.8132 31.0957 24.6859L39.7215 21.8027C41.1573 23.7763 41.9329 26.1531 41.9375 28.5938ZM39.7215 17.7996H39.6976L30.5 20.8734L21.3023 17.7996H21.2785L13.6535 15.25L30.5 9.62656L47.3465 15.25L39.7215 17.7996Z" fill="black"/>
</svg>
